# xmcd
#
# Track frame offsets:
# 150
# 19734
# 45422
# 61865
# 85683
# 111532
# 129428
# 150862
# 168880
# 192594
# 215700
# 244532
# 271306
#
# Disc length: 3895 seconds
#
#
# Revision: 0
# Processed by: cddbd v1.4PL0 Copyright (c) Steve Scherf et al.
# Submitted via: FreeRIP 2.00 
#
DISCID=a60f350d
DTITLE=BIG Al Carson - The Best Of BIG Al Carson
DYEAR=2002
DGENRE=Blues
TTITLE0=Take Your Drunken Ass Home
TTITLE1=Nobody Knows You When You're Down And Out
TTITLE2=Sweet Lorraine
TTITLE3=I'll Never Love Like That Again
TTITLE4=Because I Got High
TTITLE5=Big Legged Woman
TTITLE6=Built For Comfort
TTITLE7=C C Rider
TTITLE8=Nursery Rhymes
TTITLE9=Born Under A Bad Sign
TTITLE10=Dip My Dipper
TTITLE11=St. James Infirmary
TTITLE12=Meet Me With Your Black Drawers On
EXTD=Classic Lounge Lizard Blues
EXTT0=
EXTT1=
EXTT2=
EXTT3=
EXTT4=
EXTT5=
EXTT6=
EXTT7=
EXTT8=
EXTT9=
EXTT10=
EXTT11=
EXTT12=
PLAYORDER=
